# xmcd CD database file
# Generated: Thu Apr 25 13:50:44 2002 by KSCD
# 
# Track frame offsets:
#       150
#       15440
#       26900
#       41327
#       53060
#       64585
#       76835
#       91235
#       104130
#       118542
#       131095
#       141372
#       151065
#       166384
#       178005
#       188875
#
# Disc length: 2716 seconds
#
# Revision: 1
# Processed by: cddbd v1.4PL0 Copyright (c) Steve Scherf et al.
# Submitted via: Kscd 1.3.3
#
DISCID=cf0a9a10
DTITLE=Charles Trenet - Les Plus Grands Succès de Charles Trenet
DYEAR=1900
DGENRE=
TTITLE0=La Mer
TTITLE1=Y' A D'La Joie
TTITLE2=Que Reste-T-Il De Nos Amours
TTITLE3=Fleur Bleue
TTITLE4=Boum
TTITLE5=Mam'zelle Clio
TTITLE6=Si Vous Aimiez
TTITLE7=La Romance De Paris
TTITLE8=Douce France
TTITLE9=Je Chante
TTITLE10=Vous Etes Jolie
TTITLE11=La Route Enchantée
TTITLE12=Bonsoir Jolie Madame
TTITLE13=J'Ai Ta Main
TTITLE14=Devant La Mer
TTITLE15=Menilmontant
EXTD=
EXTT0=
EXTT1=
EXTT2=
EXTT3=
EXTT4=
EXTT5=
EXTT6=
EXTT7=
EXTT8=
EXTT9=
EXTT10=
EXTT11=
EXTT12=
EXTT13=
EXTT14=
EXTT15=
PLAYORDER=
